# xmcd
# 
# Track frame offsets:
#     150
#     17154
#     38545
#     57532
#     74037
#     95020
#     114119
#     138270
#     157888
#     179949
#     204206
#     224090
#     239962
#     252825
# 
# Disc length: 3662
# 
# Revision: 0
# Processed by: cddbd v1.5.2PL0 Copyright (c) Steve Scherf et al.
# Submitted via: BonkEnc v1.0
# 
DISCID=d50e4c0e
DTITLE=Keith Urban - Be Here
DYEAR=2004
DGENRE=Country
TTITLE0=Day's go by
TTITLE1=Better life
TTITLE2=Making memories of us
TTITLE3=God's been good to me
TTITLE4=The hard way
TTITLE5=You're my better half
TTITLE6=I could fly
TTITLE7=Tonight I wanna cry
TTITLE8=She's gotta be
TTITLE9=Nobody drinks alone
TTITLE10=Country Comfort
TTITLE11=Live to love another day
TTITLE12=These are the days
TTITLE13=You (or somebody like you)
EXTD=
EXTT0=
EXTT1=
EXTT2=
EXTT3=
EXTT4=
EXTT5=
EXTT6=
EXTT7=
EXTT8=
EXTT9=
EXTT10=
EXTT11=
EXTT12=
EXTT13=
PLAYORDER=
